<?xml version="1.0" ?><svg viewBox="0 0 24 24" xmlns="http://www.w3.org/2000/svg"><title/><g id="cash"><path d="M21,10.77V6c0-1.37-2.85-2-5.5-2a15,15,0,0,0-2.5.2V4c0-1.37-2.85-2-5.5-2S2,2.63,2,4V19c0,1.37,2.85,2,5.5,2a14.7,14.7,0,0,0,2.83-.27A7.49,7.49,0,0,0,21,10.77ZM17.89,7.82A7.34,7.34,0,0,0,20,7.21V9.42A7.55,7.55,0,0,0,17.89,7.82ZM7.5,6A10.93,10.93,0,0,0,12,5.21V7c-.08.28-1.58,1-4.5,1S3.08,7.27,3,7V5.21A10.93,10.93,0,0,0,7.5,6Zm-.06,6A6.91,6.91,0,0,0,7,14c-2.6-.08-3.95-.73-4-1V11.21A11,11,0,0,0,7.44,12ZM3,16V14.21A10.22,10.22,0,0,0,7,15a7.49,7.49,0,0,0,.42,2C4.56,17,3.08,16.27,3,16Zm4.88-5H7.5c-2.92,0-4.42-.73-4.5-1V8.21A10.93,10.93,0,0,0,7.5,9a15.5,15.5,0,0,0,2.06-.13A7.53,7.53,0,0,0,7.88,11ZM15.5,5c2.93,0,4.43.73,4.5,1s-1.57,1-4.5,1A14.59,14.59,0,0,1,13,6.79V5.21A14.59,14.59,0,0,1,15.5,5Zm-8-2c2.9,0,4.4.72,4.5,1-.1.27-1.5.94-4.19,1H7.5C4.58,5,3.08,4.27,3,4H3C3.08,3.73,4.58,3,7.5,3Zm0,17c-2.92,0-4.42-.73-4.5-1V17.21A10.93,10.93,0,0,0,7.5,18h.37a7.5,7.5,0,0,0,1.42,1.89A14.67,14.67,0,0,1,7.5,20Zm7,1A6.5,6.5,0,1,1,21,14.5,6.51,6.51,0,0,1,14.5,21Z"/><path d="M15,14v-2.3a1.29,1.29,0,0,1,1,.88.5.5,0,0,0,1-.24A2.38,2.38,0,0,0,15,10.72V10.5a.5.5,0,0,0-1,0v.21a2.27,2.27,0,0,0-2,2.12,2.31,2.31,0,0,0,.05.46A2.39,2.39,0,0,0,14,15v2.31a1.29,1.29,0,0,1-1-.88.5.5,0,1,0-1,.24A2.36,2.36,0,0,0,14,18.28v.22a.5.5,0,0,0,1,0v-.22A2.36,2.36,0,0,0,17,16.61a2.28,2.28,0,0,0,.05-.44A2.28,2.28,0,0,0,15,14Zm-2-1a.78.78,0,0,1,0-.22,1.23,1.23,0,0,1,1-1.09v2.19A1.3,1.3,0,0,1,13,13.05ZM16,16.38a1.29,1.29,0,0,1-1,.88V15.07a1.23,1.23,0,0,1,1,1.1A.82.82,0,0,1,16,16.38Z"/></g></svg>